<svg width="24" height="24" viewBox="0 0 24 24" fill="none" xmlns="http://www.w3.org/2000/svg">
<path fill-rule="evenodd" clip-rule="evenodd" d="M12 0.390015C5.37 0.390015 0 5.76001 0 12.39C0 17.7 3.435 22.185 8.205 23.775C8.805 23.88 9.03 23.52 9.03 23.205C9.03 22.92 9.015 21.975 9.015 20.97C6 21.525 5.22 20.235 4.98 19.56C4.845 19.215 4.26 18.15 3.75 17.865C3.33 17.64 2.73 17.085 3.735 17.07C4.68 17.055 5.355 17.94 5.58 18.3C6.66 20.115 8.385 19.605 9.075 19.29C9.18 18.51 9.495 17.985 9.84 17.685C7.17 17.385 4.38 16.35 4.38 11.76C4.38 10.455 4.845 9.37502 5.61 8.53502C5.49 8.23501 5.07 7.00501 5.73 5.35501C5.73 5.35501 6.735 5.04001 9.03 6.58501C9.99 6.31501 11.01 6.18001 12.03 6.18001C13.05 6.18001 14.07 6.31501 15.03 6.58501C17.325 5.02501 18.33 5.35501 18.33 5.35501C18.99 7.00501 18.57 8.23501 18.45 8.53502C19.215 9.37502 19.68 10.44 19.68 11.76C19.68 16.365 16.875 17.385 14.205 17.685C14.64 18.06 15.015 18.78 15.015 19.905C15.015 21.51 15 22.8 15 23.205C15 23.52 15.225 23.895 15.825 23.775C18.2072 22.9708 20.2773 21.4398 21.7438 19.3974C23.2103 17.3551 23.9994 14.9043 24 12.39C24 5.76001 18.63 0.390015 12 0.390015Z" fill="black"/>
</svg>
