<svg width="15" height="24" viewBox="0 0 15 24" fill="none" xmlns="http://www.w3.org/2000/svg">
<path fill-rule="evenodd" clip-rule="evenodd" d="M6.99998 5.0338C7.00422 5.0338 7.00847 5.03379 7.01272 5.03379V5.03381C10.4094 5.03589 10.4456 5.17938 11.1133 7.82385L11.1133 7.82387C11.2685 8.43867 11.4579 9.18866 11.7316 10.1035C12.5599 12.8724 12.7171 13.2766 12.8981 13.7418C13.0361 14.0965 13.1879 14.4867 13.6617 15.9885C14.7298 19.3738 13.4658 23.7841 7.01272 23.9991V24C7.00847 23.9998 7.00422 23.9997 6.99998 23.9995C6.99573 23.9997 6.99149 23.9998 6.98724 24V23.9991C0.534166 23.7841 -0.72982 19.3738 0.338255 15.9885C0.812063 14.4867 0.96386 14.0965 1.10188 13.7418C1.28283 13.2766 1.4401 12.8724 2.26839 10.1035C2.54205 9.18865 2.73141 8.43866 2.88664 7.82386L2.88665 7.82385C3.55434 5.17938 3.59057 5.03589 6.98724 5.03381V5.03379C6.99149 5.03379 6.99574 5.0338 6.99998 5.0338Z" fill="black"/>
<g filter="url(#filter0_d_4015_2793)">
<path fill-rule="evenodd" clip-rule="evenodd" d="M8.76511 4.54869L8.74359 4.56802C8.74289 4.56122 8.74205 4.55289 8.74114 4.5431C8.73548 4.54175 8.73048 4.54053 8.72617 4.53947L8.7397 4.52719C8.71026 4.19049 8.62725 2.57324 9.61138 1.47015C10.693 0.257805 13.0996 0.514753 13.1942 0.525372L13.1987 0.52549C13.1987 0.52549 13.1681 3.09034 11.8327 4.05465C10.6402 4.91582 9.0843 4.6215 8.76511 4.54869Z" fill="black"/>
</g>
<path d="M12.1641 17.3877C12.1641 19.1766 9.75427 20.4879 9.75427 20.4879C9.75427 20.4879 11.1313 19.1766 11.1313 17.3877C11.1313 15.5988 9.89198 14.889 10.7871 14.5651C11.6821 14.2412 12.1641 15.5988 12.1641 17.3877Z" fill="#FFFAFA"/>
<defs>
<filter id="filter0_d_4015_2793" x="7.67071" y="0.495605" width="6.58168" height="6.26784" filterUnits="userSpaceOnUse" color-interpolation-filters="sRGB">
<feFlood flood-opacity="0" result="BackgroundImageFix"/>
<feColorMatrix in="SourceAlpha" type="matrix" values="0 0 0 0 0 0 0 0 0 0 0 0 0 0 0 0 0 0 127 0" result="hardAlpha"/>
<feOffset dy="1.05366"/>
<feGaussianBlur stdDeviation="0.52683"/>
<feComposite in2="hardAlpha" operator="out"/>
<feColorMatrix type="matrix" values="0 0 0 0 0 0 0 0 0 0 0 0 0 0 0 0 0 0 0.25 0"/>
<feBlend mode="normal" in2="BackgroundImageFix" result="effect1_dropShadow_4015_2793"/>
<feBlend mode="normal" in="SourceGraphic" in2="effect1_dropShadow_4015_2793" result="shape"/>
</filter>
</defs>
</svg>
