<svg width="20" height="21" viewBox="0 0 20 21" fill="none" xmlns="http://www.w3.org/2000/svg">
<rect y="0.399902" width="20" height="20" rx="4" fill="url(#paint0_linear_4022_3336)"/>
<path fill-rule="evenodd" clip-rule="evenodd" d="M5.52863 6.59516C5.78899 6.33482 6.21109 6.33482 6.47145 6.59516L9.80477 9.9285C10.0651 10.1888 10.0651 10.611 9.80477 10.8713L6.47145 14.2046C6.21109 14.465 5.78899 14.465 5.52863 14.2046C5.26829 13.9443 5.26829 13.5222 5.52863 13.2618L8.39057 10.3999L5.52863 7.53798C5.26829 7.27762 5.26829 6.85552 5.52863 6.59516Z" fill="white"/>
<path fill-rule="evenodd" clip-rule="evenodd" d="M10.1953 6.59516C10.4556 6.33482 10.8777 6.33482 11.138 6.59516L14.4714 9.9285C14.7317 10.1888 14.7317 10.611 14.4714 10.8713L11.138 14.2046C10.8777 14.465 10.4556 14.465 10.1953 14.2046C9.93492 13.9443 9.93492 13.5222 10.1953 13.2618L13.0572 10.3999L10.1953 7.53798C9.93492 7.27762 9.93492 6.85552 10.1953 6.59516Z" fill="white"/>
<defs>
<linearGradient id="paint0_linear_4022_3336" x1="0" y1="10.3999" x2="20" y2="10.3999" gradientUnits="userSpaceOnUse">
<stop stop-color="#0190FF"/>
<stop offset="1" stop-color="#30A46C"/>
</linearGradient>
</defs>
</svg>
