<svg width="15" height="25" viewBox="0 0 15 25" fill="none" xmlns="http://www.w3.org/2000/svg">
<path fill-rule="evenodd" clip-rule="evenodd" d="M7.60157 5.11909H7.61476C11.0599 5.12113 11.0975 5.26667 11.7741 7.95867C11.9324 8.5846 12.1241 9.34792 12.4021 10.2792C13.2421 13.0964 13.4013 13.5086 13.585 13.9818C13.725 14.3421 13.8792 14.7401 14.36 16.2677C15.4435 19.7139 14.1612 24.2023 7.61374 24.4211H7.58838C1.04195 24.2023 -0.240349 19.7139 0.843114 16.2688C1.32398 14.7401 1.47818 14.3421 1.61817 13.9818C1.80078 13.5075 1.96107 13.0964 2.80106 10.2782C3.07902 9.34792 3.27076 8.5846 3.42902 7.95765C4.10568 5.26667 4.14321 5.12113 7.58838 5.11807L7.60157 5.11909Z" fill="#14BD95"/>
<path fill-rule="evenodd" clip-rule="evenodd" d="M9.39217 4.62542L9.37086 4.64476L9.36782 4.61932L9.3526 4.61525L9.3668 4.60303C9.33637 4.26005 9.25217 2.61431 10.2504 1.49171C11.3481 0.258175 13.7899 0.519742 13.8853 0.529919H13.8904C13.8904 0.529919 13.8599 3.1405 12.5046 4.12265C11.2943 4.99793 9.71579 4.6987 9.39217 4.62542Z" fill="#14BD95"/>
<path d="M12.8404 17.6928C12.8404 19.5136 10.3955 20.8479 10.3955 20.8479C10.3955 20.8479 11.7924 19.5136 11.7924 17.6928C11.7924 15.872 10.5344 15.1494 11.4434 14.8197C12.3514 14.4899 12.8404 15.872 12.8404 17.6928Z" fill="#FFFAFA"/>
</svg>
