<svg width="24" height="24" viewBox="0 0 24 24" fill="none" xmlns="http://www.w3.org/2000/svg">
<path d="M12.0059 23.9883C13.6443 23.9883 15.1867 23.6747 16.633 23.0475C18.0794 22.4204 19.3552 21.5542 20.4605 20.4488C21.5659 19.3435 22.4322 18.0677 23.0593 16.6213C23.6864 15.175 24 13.6326 24 11.9941C24 10.3557 23.6864 8.81334 23.0593 7.36699C22.4322 5.92064 21.5659 4.64479 20.4605 3.53944C19.3552 2.4341 18.0774 1.56786 16.6271 0.940717C15.1769 0.313572 13.6325 0 11.9941 0C10.3557 0 8.81331 0.313572 7.36695 0.940717C5.9206 1.56786 4.64671 2.4341 3.54529 3.53944C2.44386 4.64479 1.57958 5.92064 0.952436 7.36699C0.325291 8.81334 0.0117188 10.3557 0.0117188 11.9941C0.0117188 13.6326 0.325291 15.175 0.952436 16.6213C1.57958 18.0677 2.44582 19.3435 3.55116 20.4488C4.65651 21.5542 5.93236 22.4204 7.37871 23.0475C8.82506 23.6747 10.3674 23.9883 12.0059 23.9883ZM12.0059 21.9892C10.6183 21.9892 9.3209 21.7306 8.11365 21.2132C6.90639 20.6958 5.84612 19.9805 4.93284 19.0672C4.01957 18.1539 3.30619 17.0937 2.79271 15.8864C2.27924 14.6792 2.0225 13.3817 2.0225 11.9941C2.0225 10.6066 2.27924 9.30918 2.79271 8.10193C3.30619 6.89468 4.01761 5.83245 4.92696 4.91525C5.83632 3.99804 6.89463 3.28271 8.10189 2.76923C9.30914 2.25576 10.6065 1.99903 11.9941 1.99903C13.3817 1.99903 14.6791 2.25576 15.8863 2.76923C17.0936 3.28271 18.1558 3.99804 19.073 4.91525C19.9902 5.83245 20.7075 6.89468 21.2249 8.10193C21.7423 9.30918 22.001 10.6066 22.001 11.9941C22.001 13.3817 21.7442 14.6792 21.2308 15.8864C20.7173 17.0937 20.0039 18.1539 19.0906 19.0672C18.1773 19.9805 17.1151 20.6958 15.9039 21.2132C14.6928 21.7306 13.3935 21.9892 12.0059 21.9892ZM6.62026 17.9441H17.368C17.6031 17.9441 17.7775 17.8755 17.8912 17.7383C18.0049 17.6012 18.0617 17.4228 18.0617 17.2034C18.0617 16.8819 17.9382 16.4645 17.6913 15.9511C17.4444 15.4376 17.072 14.9241 16.5742 14.4106C16.0765 13.8971 15.4473 13.464 14.6869 13.1113C13.9265 12.7585 13.0289 12.5821 11.9941 12.5821C10.9593 12.5821 10.0617 12.7585 9.3013 13.1113C8.54089 13.464 7.91178 13.8971 7.41399 14.4106C6.91619 14.9241 6.54382 15.4376 6.29689 15.9511C6.04995 16.4645 5.92648 16.8819 5.92648 17.2034C5.92648 17.4228 5.98331 17.6012 6.09698 17.7383C6.21065 17.8755 6.38508 17.9441 6.62026 17.9441ZM11.9941 11.6179C12.5507 11.6257 13.0583 11.4846 13.5169 11.1945C13.9755 10.9045 14.34 10.5106 14.6104 10.0128C14.8809 9.51496 15.0161 8.95249 15.0161 8.32534C15.0161 7.7374 14.8809 7.19845 14.6104 6.70849C14.34 6.21853 13.9755 5.82657 13.5169 5.5326C13.0583 5.23862 12.5507 5.09164 11.9941 5.09164C11.4375 5.09164 10.9299 5.23862 10.4713 5.5326C10.0127 5.82657 9.64819 6.21853 9.37773 6.70849C9.10728 7.19845 8.97205 7.7374 8.97205 8.32534C8.97205 8.95249 9.10728 9.513 9.37773 10.0069C9.64819 10.5008 10.0127 10.8927 10.4713 11.1828C10.9299 11.4728 11.4375 11.6179 11.9941 11.6179Z" fill="black" fill-opacity="0.85"/>
</svg>
